<?xml version="1.0"?>
<svg xmlns="http://www.w3.org/2000/svg" xmlns:xlink="http://www.w3.org/1999/xlink" xmlns:svgjs="http://svgjs.com/svgjs" version="1.1" width="512" height="512" x="0" y="0" viewBox="0 0 74 74" style="enable-background:new 0 0 512 512" xml:space="preserve" class=""><g><path xmlns="http://www.w3.org/2000/svg" d="m22.5 49.36h-19.5a1 1 0 0 1 -1-1v-4.5a9.911 9.911 0 0 1 9.9-9.9h9.38a9.848 9.848 0 0 1 9.767 8.322 1 1 0 0 1 -1.975.316 7.856 7.856 0 0 0 -7.792-6.638h-9.38a7.909 7.909 0 0 0 -7.9 7.9v3.5h18.5a1 1 0 0 1 0 2z" fill="#e7e7e7" data-original="#000000" style=""/><path xmlns="http://www.w3.org/2000/svg" d="m16.587 31.081a7.746 7.746 0 1 1 7.745-7.746 7.754 7.754 0 0 1 -7.745 7.746zm0-13.491a5.746 5.746 0 1 0 5.745 5.745 5.752 5.752 0 0 0 -5.745-5.745z" fill="#e7e7e7" data-original="#000000" style=""/><path xmlns="http://www.w3.org/2000/svg" d="m71 49.36h-19.5a1 1 0 0 1 0-2h18.5v-3.5a7.909 7.909 0 0 0 -7.9-7.9h-9.38a7.856 7.856 0 0 0 -7.792 6.64 1 1 0 0 1 -1.975-.316 9.848 9.848 0 0 1 9.767-8.324h9.38a9.911 9.911 0 0 1 9.9 9.9v4.5a1 1 0 0 1 -1 1z" fill="#e7e7e7" data-original="#000000" style=""/><path xmlns="http://www.w3.org/2000/svg" d="m57.413 31.081a7.746 7.746 0 1 1 7.746-7.746 7.755 7.755 0 0 1 -7.746 7.746zm0-13.491a5.746 5.746 0 1 0 5.746 5.745 5.751 5.751 0 0 0 -5.746-5.745z" fill="#e7e7e7" data-original="#000000" style=""/><path xmlns="http://www.w3.org/2000/svg" d="m52.325 57.41h-30.65a1 1 0 0 1 -1-1v-4.072a11.049 11.049 0 0 1 11.037-11.038h10.576a11.049 11.049 0 0 1 11.037 11.038v4.072a1 1 0 0 1 -1 1zm-29.65-2h28.65v-3.072a9.047 9.047 0 0 0 -9.037-9.038h-10.576a9.047 9.047 0 0 0 -9.037 9.037z" fill="#e7e7e7" data-original="#000000" style=""/><path xmlns="http://www.w3.org/2000/svg" d="m37 37.8a8.609 8.609 0 1 1 8.608-8.609 8.617 8.617 0 0 1 -8.608 8.609zm0-15.22a6.609 6.609 0 1 0 6.608 6.608 6.615 6.615 0 0 0 -6.608-6.608z" fill="#e7e7e7" data-original="#000000" style=""/></g></svg>
