<!DOCTYPE svg PUBLIC "-//W3C//DTD SVG 20010904//EN" "http://www.w3.org/TR/2001/REC-SVG-20010904/DTD/svg10.dtd">
<svg version="1.0" xmlns="http://www.w3.org/2000/svg" width="640px" height="1200px" viewBox="0 0 6400 12000" preserveAspectRatio="xMidYMid meet">
<g id="layer101" fill="#000000" stroke="none">
<path d="M30 11825 l0 -175 25 0 c24 0 25 2 25 75 l0 75 80 0 80 0 0 -75 c0 -73 1 -75 25 -75 l25 0 0 175 0 175 -25 0 c-24 0 -25 -2 -25 -75 l0 -75 -80 0 -80 0 0 75 c0 73 -1 75 -25 75 l-25 0 0 -175z"/>
<path d="M560 11986 c0 -9 28 -88 63 -176 55 -141 65 -160 85 -160 16 0 26 8 32 28 6 15 15 36 20 47 30 64 100 247 100 260 0 11 -7 15 -21 13 -23 -3 -25 -7 -53 -70 l-16 -38 -64 0 -63 0 -19 53 c-15 39 -25 53 -42 55 -15 2 -22 -2 -22 -12z m190 -143 c0 -17 -34 -103 -41 -103 -4 0 -13 17 -19 38 -7 20 -16 41 -21 47 -18 18 -8 25 36 25 25 0 45 -3 45 -7z"/>
<path d="M2060 11995 c0 -7 48 -136 60 -160 5 -11 19 -45 30 -75 39 -102 44 -110 67 -110 16 0 24 9 34 38 6 20 15 42 19 47 3 6 15 33 25 60 9 28 23 64 31 80 26 59 44 108 44 116 0 5 -11 9 -23 9 -19 0 -28 -11 -47 -55 l-24 -56 -65 3 c-62 3 -65 4 -73 33 -17 57 -31 75 -55 75 -13 0 -23 -2 -23 -5z m200 -149 c0 -2 -10 -29 -21 -60 -20 -52 -39 -66 -39 -28 0 9 -7 30 -15 46 -22 42 -19 46 30 46 25 0 45 -2 45 -4z"/>
<path d="M4030 11826 l0 -176 74 0 c81 0 139 19 156 49 26 49 3 133 -41 149 -17 7 -15 13 26 74 25 37 45 70 45 73 0 3 -12 5 -27 5 -24 0 -35 -12 -73 -70 -40 -62 -48 -70 -77 -70 l-32 0 -3 68 c-3 61 -5 67 -25 70 l-23 3 0 -175z m168 -22 c23 -16 29 -57 13 -83 -6 -9 -32 -16 -70 -19 l-61 -4 0 61 0 61 48 0 c27 0 57 -7 70 -16z"/>
<path d="M5065 11978 c4 -13 11 -27 16 -32 5 -6 9 -17 9 -25 0 -9 6 -27 13 -41 7 -14 24 -54 37 -90 13 -36 30 -76 37 -90 7 -14 13 -31 13 -37 0 -7 10 -13 23 -13 24 0 33 14 77 130 11 30 25 64 30 75 17 36 50 125 50 135 0 6 -11 10 -24 10 -17 0 -27 -7 -31 -22 -4 -13 -14 -38 -22 -55 -15 -32 -17 -33 -78 -33 l-62 0 -18 55 c-17 49 -22 55 -48 55 -25 0 -27 -3 -22 -22z m189 -155 c-7 -16 -14 -35 -14 -43 0 -8 -6 -23 -14 -32 -11 -15 -15 -10 -34 43 l-21 59 49 0 49 0 -15 -27z"/>
<path d="M5679 11977 c-48 -32 -59 -61 -59 -152 0 -91 11 -120 59 -152 59 -40 201 -27 201 18 0 16 -7 18 -64 12 -84 -8 -112 1 -136 40 -25 41 -27 123 -3 157 32 47 43 51 126 46 68 -4 77 -2 77 13 0 45 -142 58 -201 18z"/>
<path d="M380 11161 c-90 -30 -141 -62 -215 -136 -76 -76 -125 -160 -150 -258 -13 -51 -15 -689 -15 -5178 0 -4598 2 -5127 16 -5177 27 -102 74 -182 151 -259 40 -40 79 -73 88 -73 8 0 15 -4 15 -8 0 -9 40 -26 125 -53 58 -18 134 -19 2802 -19 2434 0 2748 2 2801 15 116 30 220 101 294 200 49 67 62 92 89 180 18 58 19 217 19 5193 0 4631 -2 5139 -16 5190 -37 137 -114 243 -229 319 -96 63 -135 75 -272 80 l-122 5 -3 -143 -3 -144 -137 -3 -138 -3 0 -164 0 -165 -135 0 -135 0 0 -165 0 -165 -135 0 -135 0 -2 -162 -3 -163 -137 -3 -138 -3 0 -43 0 -43 -77 -8 c-43 -4 -115 -10 -160 -14 -45 -3 -85 -10 -90 -14 -10 -10 -17 -1789 -8 -1933 l7 -100 96 -12 c54 -7 113 -12 133 -12 71 0 99 -10 99 -36 l0 -24 -415 0 -415 0 0 24 c0 22 5 25 53 30 28 3 104 10 168 17 l117 12 6 51 c3 28 6 239 6 469 l0 417 -447 -2 -448 -3 -3 -1186 -2 -1187 37 -20 c21 -11 67 -35 103 -53 36 -19 67 -37 68 -41 2 -5 8 -8 13 -8 5 0 51 -23 101 -52 51 -28 129 -70 173 -93 149 -79 242 -133 345 -204 103 -70 210 -152 210 -161 0 -9 -65 4 -125 25 -211 73 -254 93 -453 203 -50 29 -97 52 -102 52 -6 0 -10 5 -10 10 0 6 -5 10 -10 10 -6 0 -46 20 -90 45 -44 25 -86 45 -95 45 -9 0 10 -32 52 -87 37 -49 70 -90 73 -93 3 -3 30 -36 60 -75 77 -98 82 -104 111 -139 70 -84 249 -375 249 -405 0 -8 -7 -7 -22 3 -29 20 -158 137 -222 201 -54 54 -60 60 -146 170 -78 99 -82 104 -110 139 -14 17 -46 57 -70 90 -24 32 -46 53 -48 47 -4 -11 33 -144 47 -171 5 -9 12 -31 16 -50 4 -19 11 -41 15 -50 4 -8 24 -69 45 -135 20 -66 41 -131 45 -145 17 -48 70 -320 70 -355 0 -63 -11 -49 -109 140 -70 136 -89 184 -162 418 -24 75 -47 137 -51 137 -10 0 -10 -1222 -1 -2803 l6 -1177 328 0 328 0 10 38 c5 20 12 66 15 102 4 36 11 88 15 115 5 28 15 85 22 127 l12 78 45 0 44 0 -6 -32 c-6 -34 -26 -378 -26 -455 l0 -43 -884 0 -883 0 -7 138 c-4 75 -9 194 -13 265 l-6 127 42 0 c22 0 41 -3 41 -7 0 -5 9 -64 20 -133 11 -69 25 -169 32 -223 l11 -97 332 0 332 0 6 503 c9 689 9 3487 0 3487 -5 0 -17 -28 -27 -63 -92 -300 -134 -406 -231 -582 -61 -109 -70 -114 -61 -30 4 39 11 86 16 105 5 19 18 78 30 130 20 94 74 281 90 310 4 9 11 31 15 50 4 19 11 41 15 50 15 30 78 235 74 240 -6 5 -35 -27 -104 -115 -30 -38 -65 -81 -77 -95 -13 -14 -23 -28 -23 -32 0 -4 -8 -15 -18 -25 -10 -10 -37 -44 -61 -76 -64 -85 -324 -327 -337 -314 -10 9 56 127 148 266 50 75 93 138 97 141 4 3 38 46 76 95 38 50 72 92 75 95 24 20 158 206 150 208 -5 2 -56 -22 -112 -54 -57 -32 -119 -66 -138 -77 -19 -11 -78 -42 -130 -69 -52 -28 -100 -54 -106 -59 -26 -21 -361 -139 -393 -139 -18 1 49 64 114 108 22 15 42 29 45 32 3 4 23 17 45 30 22 13 42 27 45 30 10 12 164 100 312 178 18 9 35 19 38 22 3 3 32 19 65 36 58 30 132 70 260 142 33 18 72 38 88 45 l27 11 -2 1186 -3 1185 -447 3 -448 2 0 -333 c0 -184 3 -394 6 -469 l7 -134 106 -12 c59 -7 125 -12 148 -12 57 0 73 -8 73 -36 l0 -24 -415 0 -415 0 0 25 c0 27 10 30 140 39 41 4 105 9 143 12 l67 7 -2 1021 -3 1021 -80 6 c-44 4 -122 10 -172 14 l-93 8 0 48 0 49 -130 0 -130 0 0 160 0 160 -135 0 -135 0 0 165 0 165 -135 0 -135 0 0 165 0 165 -135 0 -135 0 0 145 0 145 -107 -1 c-76 0 -124 -5 -163 -18z m220 -143 c0 -174 -5 -168 157 -168 l123 0 0 -149 c0 -123 3 -152 16 -165 12 -13 40 -16 135 -16 l119 0 0 -147 c0 -82 5 -155 10 -163 7 -12 37 -16 135 -18 l125 -4 0 -139 c0 -78 5 -149 10 -160 10 -17 22 -19 130 -19 l120 0 0 -44 c0 -52 -7 -50 195 -67 77 -6 142 -13 145 -16 8 -7 6 -1950 -2 -1958 -4 -4 -51 -11 -105 -15 -54 -5 -128 -12 -165 -16 l-68 -7 0 -63 0 -64 460 0 460 0 0 63 0 63 -122 13 c-68 6 -147 14 -175 17 l-53 5 0 430 0 429 403 0 404 0 6 -202 c4 -112 7 -631 7 -1154 l0 -951 -52 -26 c-29 -15 -89 -46 -133 -70 -44 -24 -105 -56 -135 -72 -30 -17 -57 -32 -60 -35 -3 -3 -33 -19 -66 -36 -34 -18 -81 -43 -105 -56 -24 -14 -71 -40 -104 -58 -131 -73 -326 -211 -381 -270 -30 -32 -32 -76 -3 -85 20 -7 143 20 164 35 6 4 25 11 43 15 18 4 45 13 60 21 15 8 35 14 44 14 9 0 19 4 22 9 3 5 18 12 33 16 28 7 107 45 198 95 28 15 77 42 110 60 33 18 66 37 73 42 7 6 15 9 17 6 4 -4 -69 -107 -84 -118 -4 -3 -18 -21 -31 -40 -13 -19 -27 -37 -30 -40 -4 -3 -30 -36 -58 -75 -29 -38 -57 -75 -62 -82 -6 -7 -10 -17 -10 -22 0 -5 -6 -16 -13 -23 -21 -21 -114 -180 -137 -233 -39 -90 2 -125 79 -68 90 66 248 216 306 288 22 28 42 52 45 55 5 4 71 89 117 150 6 8 -13 -58 -43 -147 -29 -89 -63 -204 -74 -255 -11 -51 -25 -106 -30 -122 -15 -46 -34 -229 -27 -258 11 -41 36 -43 74 -6 18 17 33 37 33 44 0 7 4 14 8 16 16 6 152 296 177 378 15 47 29 90 31 95 2 6 2 -588 -1 -1320 -3 -731 -5 -1570 -5 -1862 l0 -533 -295 0 c-162 0 -295 3 -295 8 -1 9 -24 185 -44 327 -9 61 -16 111 -16 113 0 1 -37 2 -81 2 l-82 0 7 -198 c7 -195 22 -391 30 -399 7 -7 1815 -5 1826 2 5 3 10 45 10 94 0 48 4 134 9 192 6 57 12 150 15 206 l4 103 -84 0 c-60 0 -84 -4 -84 -12 0 -7 -5 -42 -10 -78 -6 -36 -17 -112 -25 -170 -8 -58 -18 -124 -21 -147 l-7 -43 -292 0 -293 0 -6 813 c-4 446 -6 1280 -4 1852 l3 1040 29 -90 c16 -49 33 -97 37 -105 5 -8 30 -60 57 -115 92 -190 130 -245 167 -245 18 0 26 7 31 26 8 30 -3 181 -16 222 -4 15 -16 63 -25 107 -21 98 -46 186 -96 335 -21 63 -37 116 -35 117 2 2 16 -13 32 -34 15 -21 31 -40 34 -43 4 -3 30 -36 59 -75 87 -113 304 -320 370 -351 75 -36 86 31 25 143 -72 131 -218 343 -316 458 -43 51 -87 110 -84 113 4 3 169 -81 231 -118 71 -43 126 -68 225 -104 58 -21 114 -41 125 -46 53 -20 135 -40 168 -40 27 0 37 5 42 20 10 32 -5 52 -106 135 -48 39 -236 163 -299 197 -36 20 -81 44 -100 55 -19 11 -66 37 -105 58 -38 20 -95 51 -125 68 -30 16 -81 44 -115 61 -33 17 -62 33 -65 36 -3 3 -36 22 -75 42 l-70 37 -3 1155 -2 1156 410 0 410 0 0 -429 0 -429 -22 -6 c-13 -3 -39 -6 -58 -6 -19 0 -88 -5 -152 -12 l-118 -12 0 -63 0 -63 460 0 460 0 0 64 0 63 -67 7 c-38 3 -102 8 -143 12 -41 3 -90 7 -107 10 l-33 5 0 983 0 983 158 11 c87 6 166 14 175 18 12 4 17 18 17 44 l0 38 125 4 c98 2 128 6 135 18 5 8 10 81 10 163 l0 147 123 0 c82 0 127 4 135 12 8 8 12 59 12 165 l0 153 123 0 c82 0 127 4 135 12 8 8 12 59 12 165 l0 153 128 0 c86 0 132 4 140 12 8 8 12 56 12 151 l0 140 75 -7 c140 -13 245 -62 340 -161 67 -68 116 -159 134 -243 16 -75 16 -10229 0 -10304 -29 -139 -141 -282 -269 -345 -138 -67 47 -63 -2880 -63 -2923 0 -2743 -4 -2878 62 -133 65 -247 220 -272 368 -8 46 -10 1524 -8 5170 l3 5105 24 65 c77 210 263 343 489 349 l42 1 0 -132z"/>
<path d="M4735 4074 c-116 -16 -246 -78 -322 -152 -53 -52 -93 -103 -93 -119 0 -7 -4 -13 -10 -13 -5 0 -10 -6 -10 -12 0 -7 -7 -25 -14 -41 -63 -120 -59 -333 9 -467 25 -49 112 -170 123 -170 4 0 22 -13 39 -29 18 -16 57 -40 85 -54 95 -46 145 -57 257 -57 91 0 118 4 187 29 380 134 495 609 222 911 -58 64 -163 128 -256 155 -52 15 -170 25 -217 19z m166 -50 c406 -90 553 -581 262 -872 -81 -80 -168 -126 -283 -148 -72 -13 -88 -13 -161 1 -120 22 -201 65 -284 149 -40 41 -80 92 -93 121 -13 28 -27 57 -32 66 -5 9 -14 52 -21 96 -12 81 -2 209 20 251 6 9 20 39 33 67 30 64 146 182 218 220 59 31 172 62 231 64 20 1 70 -6 110 -15z"/>
</g>
<g id="layer102" fill="#196694" stroke="none">
<path d="M30 11824 l0 -175 23 3 c20 3 22 9 25 76 l3 72 79 0 80 0 0 -75 c0 -73 1 -75 25 -75 l25 0 0 175 0 175 -25 0 c-24 0 -25 -2 -25 -75 l0 -75 -80 0 -80 0 0 75 c0 73 -1 75 -25 75 l-25 0 0 -176z"/>
<path d="M560 11986 c0 -9 28 -88 63 -176 55 -141 65 -160 85 -160 16 0 26 8 32 28 6 15 15 36 20 47 29 63 100 247 100 260 0 18 -34 20 -47 3 -6 -7 -13 -26 -17 -43 -12 -48 -23 -55 -91 -55 l-62 0 -19 53 c-15 39 -25 53 -42 55 -15 2 -22 -2 -22 -12z m190 -143 c0 -17 -34 -103 -41 -103 -4 0 -13 17 -19 38 -7 20 -16 41 -21 47 -18 18 -8 25 36 25 25 0 45 -3 45 -7z"/>
<path d="M1170 11850 l0 -150 -55 0 c-52 0 -55 -1 -55 -25 l0 -25 140 0 140 0 0 25 c0 24 -3 25 -60 25 l-60 0 0 150 0 150 -25 0 -25 0 0 -150z"/>
<path d="M1690 11850 l0 -150 -55 0 c-52 0 -55 -1 -55 -25 l0 -25 140 0 140 0 0 25 c0 24 -3 25 -60 25 l-60 0 0 150 0 150 -25 0 -25 0 0 -150z"/>
<path d="M2060 11995 c0 -7 48 -136 60 -160 5 -11 19 -45 30 -75 39 -102 44 -110 67 -110 16 0 24 9 34 38 6 20 15 42 19 47 3 6 15 33 25 60 9 28 23 64 31 80 26 59 44 108 44 116 0 5 -10 9 -23 9 -19 0 -28 -11 -46 -55 l-23 -56 -66 3 c-63 3 -66 4 -74 33 -17 57 -31 75 -55 75 -13 0 -23 -2 -23 -5z m200 -149 c0 -2 -10 -29 -21 -60 -20 -52 -39 -66 -39 -28 0 9 -7 30 -15 46 -22 42 -19 46 30 46 25 0 45 -2 45 -4z"/>
<path d="M3100 11850 l0 -150 -55 0 c-52 0 -55 -1 -55 -25 l0 -25 135 0 135 0 0 25 c0 24 -3 25 -55 25 l-55 0 0 150 0 150 -25 0 -25 0 0 -150z"/>
<path d="M3530 11825 l0 -175 110 0 110 0 0 25 c0 25 -1 25 -85 25 l-85 0 0 50 0 50 75 0 c73 0 75 1 75 25 0 24 -2 25 -75 25 l-75 0 0 50 0 50 85 0 c84 0 85 0 85 25 l0 25 -110 0 -110 0 0 -175z"/>
<path d="M4030 11826 l0 -176 74 0 c81 0 139 19 156 49 26 49 3 133 -41 149 -17 7 -15 14 26 76 25 37 45 70 45 72 0 2 -12 4 -27 4 -24 0 -35 -12 -73 -70 -40 -62 -48 -70 -77 -70 l-32 0 -3 68 c-3 61 -5 67 -25 70 l-23 3 0 -175z m168 -22 c23 -16 29 -57 13 -83 -6 -9 -32 -16 -70 -19 l-61 -4 0 61 0 61 48 0 c27 0 57 -7 70 -16z"/>
<path d="M4550 11825 l0 -175 80 0 c118 0 170 32 170 106 0 35 -26 81 -50 89 -21 7 -21 7 6 53 15 26 33 54 40 63 22 25 17 41 -13 37 -22 -2 -36 -17 -68 -70 -38 -64 -42 -67 -77 -68 l-38 0 0 70 c0 68 -1 70 -25 70 l-25 0 0 -175z m180 -25 c11 -11 20 -29 20 -40 0 -38 -35 -60 -95 -60 l-55 0 0 60 0 60 55 0 c42 0 60 -5 75 -20z"/>
<path d="M5065 11978 c4 -13 11 -27 16 -32 5 -6 9 -17 9 -25 0 -9 6 -27 13 -41 7 -14 24 -54 37 -90 13 -36 30 -76 37 -90 7 -14 13 -31 13 -37 0 -7 10 -13 23 -13 24 0 33 14 77 130 11 30 25 64 30 75 17 36 50 125 50 135 0 6 -11 10 -24 10 -19 0 -27 -9 -42 -52 l-19 -53 -66 -3 -65 -3 -19 56 c-17 49 -22 55 -48 55 -25 0 -27 -3 -22 -22z m189 -155 c-7 -16 -14 -35 -14 -43 0 -8 -6 -23 -14 -32 -11 -15 -15 -10 -34 43 l-21 59 49 0 49 0 -15 -27z"/>
<path d="M5679 11977 c-48 -32 -59 -61 -59 -152 0 -91 11 -120 59 -152 59 -40 201 -27 201 18 0 16 -7 18 -64 12 -35 -3 -76 -3 -90 1 -61 15 -88 134 -45 202 25 41 51 49 135 41 57 -6 64 -4 64 12 0 45 -142 58 -201 18z"/>
<path d="M6150 11825 l0 -175 110 0 110 0 0 25 c0 25 -1 25 -85 25 l-85 0 0 50 0 50 75 0 c73 0 75 1 75 25 0 24 -2 25 -75 25 l-75 0 0 50 0 50 85 0 c84 0 85 0 85 25 l0 25 -110 0 -110 0 0 -175z"/>
<path d="M380 11161 c-90 -30 -141 -62 -215 -136 -76 -76 -125 -160 -150 -258 -13 -51 -15 -689 -15 -5178 0 -4598 2 -5127 16 -5177 27 -102 74 -182 151 -259 40 -40 79 -73 88 -73 8 0 15 -4 15 -8 0 -9 40 -26 125 -53 58 -18 134 -19 2802 -19 2434 0 2748 2 2801 15 116 30 220 101 294 200 49 67 62 92 89 180 18 58 19 217 19 5193 0 4631 -2 5139 -16 5190 -46 169 -150 290 -312 365 -60 27 -79 31 -189 35 l-122 4 -3 -143 -3 -144 -137 -3 -138 -3 0 -164 0 -165 -135 0 -135 0 0 -165 0 -165 -135 0 -135 0 -2 -162 -3 -163 -137 -3 -138 -3 0 -43 0 -43 -77 -8 c-43 -4 -115 -10 -160 -14 -45 -3 -85 -10 -90 -14 -10 -10 -17 -1789 -8 -1933 l7 -100 96 -12 c54 -7 113 -12 133 -12 71 0 99 -10 99 -36 l0 -24 -415 0 -415 0 0 24 c0 22 5 25 53 30 28 3 105 10 169 17 l117 12 6 71 c3 39 5 249 3 466 l-3 395 -445 0 -445 0 -3 -1186 -2 -1187 37 -20 c21 -11 67 -35 103 -53 36 -19 67 -37 68 -41 2 -5 8 -8 13 -8 5 0 51 -23 101 -52 51 -28 129 -70 173 -93 149 -79 242 -133 345 -204 103 -70 210 -152 210 -161 0 -9 -65 4 -125 25 -211 73 -254 93 -453 203 -50 29 -97 52 -102 52 -6 0 -10 5 -10 10 0 6 -4 10 -10 10 -5 0 -46 20 -91 45 -45 25 -88 45 -95 45 -12 0 26 -54 119 -170 7 -8 37 -47 67 -85 82 -104 83 -105 111 -139 70 -84 249 -375 249 -405 0 -8 -7 -7 -22 3 -29 20 -158 137 -222 201 -54 54 -60 60 -146 170 -78 99 -82 104 -110 139 -14 17 -46 57 -70 90 -24 32 -46 53 -48 47 -4 -11 33 -144 47 -171 5 -9 12 -31 16 -50 4 -19 11 -41 15 -50 4 -8 24 -69 45 -135 20 -66 41 -131 45 -145 17 -48 70 -320 70 -355 0 -63 -11 -49 -109 140 -70 136 -89 184 -162 418 -24 75 -47 137 -51 137 -10 0 -10 -1222 -1 -2803 l6 -1177 328 0 328 0 10 38 c5 20 12 66 15 102 4 36 11 90 16 120 5 30 14 88 21 128 l11 72 45 0 45 0 -6 -32 c-6 -34 -26 -378 -26 -455 l0 -43 -884 0 -883 0 -7 138 c-4 75 -9 194 -13 265 l-6 127 41 0 40 0 11 -62 c13 -78 27 -173 42 -301 l12 -97 332 0 332 0 6 503 c11 813 9 3487 -3 3487 -5 0 -10 -6 -10 -13 0 -19 -117 -371 -141 -425 -58 -126 -134 -268 -157 -292 -13 -13 -14 -6 -8 55 4 39 11 86 16 105 5 19 18 78 30 130 18 85 69 263 90 315 21 54 107 331 103 335 -5 5 -34 -27 -103 -115 -30 -38 -65 -81 -77 -95 -13 -14 -23 -28 -23 -32 0 -4 -8 -15 -18 -25 -10 -10 -37 -44 -61 -75 -66 -88 -324 -329 -337 -315 -10 9 57 129 148 266 50 75 93 138 97 141 4 3 38 45 76 95 39 49 78 99 87 110 62 74 146 191 139 193 -8 3 -54 -21 -241 -126 -25 -13 -88 -47 -140 -74 -52 -28 -100 -54 -106 -59 -26 -21 -361 -139 -393 -139 -18 1 49 64 114 108 22 15 42 29 45 32 30 30 407 250 429 250 5 0 11 3 13 8 2 4 30 21 63 38 58 30 132 70 260 142 33 18 72 38 88 45 l27 11 -2 1186 -3 1185 -445 0 -445 0 -3 -285 c-2 -157 0 -366 3 -466 l7 -180 107 -12 c59 -7 125 -12 148 -12 57 0 73 -8 73 -36 l0 -24 -415 0 -415 0 0 25 c0 27 10 30 140 39 41 4 105 9 143 12 l67 7 -2 1021 -3 1021 -80 6 c-44 4 -122 10 -172 14 l-93 8 0 48 0 49 -130 0 -130 0 0 160 0 160 -135 0 -135 0 0 165 0 165 -135 0 -135 0 0 165 0 165 -135 0 -135 0 0 145 0 145 -107 -1 c-76 0 -124 -5 -163 -18z m220 -143 c0 -174 -5 -168 157 -168 l123 0 0 -149 c0 -123 3 -152 16 -165 12 -13 40 -16 135 -16 l119 0 0 -147 c0 -82 5 -155 10 -163 7 -12 37 -16 135 -18 l125 -4 0 -139 c0 -78 5 -149 10 -160 10 -17 22 -19 130 -19 l120 0 0 -44 c0 -52 -7 -50 195 -67 77 -6 142 -13 145 -16 8 -7 6 -1950 -2 -1958 -4 -4 -51 -11 -105 -15 -54 -5 -128 -12 -165 -16 l-68 -7 0 -63 0 -64 460 0 460 0 0 63 0 63 -122 13 c-68 6 -147 14 -175 17 l-53 5 0 430 0 429 403 0 404 0 6 -202 c4 -112 7 -631 7 -1154 l0 -951 -52 -26 c-71 -35 -238 -125 -263 -141 -11 -7 -60 -35 -110 -61 -321 -170 -523 -301 -611 -395 -30 -32 -32 -76 -3 -85 20 -7 143 20 164 35 6 4 25 11 43 15 18 4 45 13 60 21 15 8 32 14 38 14 25 0 395 187 442 223 28 22 19 -2 -21 -55 -80 -104 -102 -133 -107 -138 -22 -21 -83 -105 -111 -150 -18 -30 -36 -57 -39 -60 -13 -10 -100 -161 -125 -216 -32 -69 -28 -104 12 -104 36 0 100 48 254 195 41 40 93 94 115 121 21 27 41 51 44 54 5 4 71 89 117 150 6 8 -13 -58 -43 -147 -29 -89 -63 -204 -74 -255 -11 -51 -25 -106 -30 -122 -15 -46 -34 -229 -27 -258 15 -60 71 -32 122 61 69 126 147 296 170 371 15 47 29 90 31 95 2 6 2 -588 -1 -1320 -3 -731 -5 -1570 -5 -1862 l0 -533 -294 0 -295 0 -6 48 c-3 26 -12 90 -20 142 -7 52 -19 132 -26 177 l-11 83 -81 0 -80 0 7 -198 c7 -195 22 -391 30 -399 7 -7 1815 -5 1826 2 5 3 10 45 10 94 0 48 4 134 9 192 6 57 12 150 15 206 l4 103 -84 0 c-60 0 -84 -4 -84 -12 0 -7 -5 -42 -10 -78 -6 -36 -17 -112 -25 -170 -8 -58 -18 -124 -21 -147 l-7 -43 -292 0 -293 0 -6 813 c-4 446 -6 1280 -4 1852 l3 1040 29 -90 c32 -99 157 -356 205 -423 37 -51 77 -58 87 -16 8 30 -3 181 -16 222 -4 15 -16 63 -25 107 -21 98 -46 186 -96 335 -21 63 -37 116 -35 117 2 2 16 -13 32 -34 15 -21 31 -40 34 -43 4 -3 30 -36 59 -74 92 -121 335 -347 387 -360 37 -10 57 10 49 50 -15 82 -208 384 -357 559 -44 52 -87 110 -83 113 3 4 103 -48 275 -143 41 -22 122 -58 180 -79 58 -21 114 -41 125 -46 53 -20 135 -40 168 -40 27 0 37 5 42 20 10 33 -9 57 -111 138 -40 33 -249 170 -298 196 -80 43 -182 99 -221 121 -92 52 -163 90 -220 119 -33 17 -62 33 -65 36 -3 3 -36 22 -75 42 l-70 37 -3 1155 -2 1156 410 0 410 0 0 -429 0 -429 -22 -6 c-13 -3 -39 -6 -58 -6 -19 0 -88 -5 -152 -12 l-118 -12 0 -63 0 -63 460 0 460 0 0 64 0 63 -67 7 c-38 3 -102 8 -143 12 -41 3 -90 7 -107 10 l-33 5 0 983 0 983 158 11 c87 6 166 14 175 18 12 4 17 18 17 44 l0 38 125 4 c98 2 128 6 135 18 5 8 10 81 10 163 l0 147 123 0 c82 0 127 4 135 12 8 8 12 59 12 165 l0 153 123 0 c82 0 127 4 135 12 8 8 12 59 12 165 l0 153 128 0 c86 0 132 4 140 12 8 8 12 56 12 151 l0 140 75 -7 c140 -13 245 -62 340 -161 67 -68 116 -159 134 -243 16 -75 16 -10229 0 -10304 -37 -177 -180 -327 -370 -386 -50 -15 -261 -17 -2739 -19 -2967 -4 -2782 -7 -2918 59 -132 65 -244 215 -271 362 -8 42 -11 1558 -11 5140 0 5543 -4 5148 57 5272 33 68 129 171 193 208 82 46 174 72 268 75 l42 1 0 -132z"/>
<path d="M4735 4074 c-113 -16 -239 -74 -316 -146 -43 -40 -99 -112 -99 -127 0 -6 -4 -11 -10 -11 -5 0 -10 -6 -10 -12 0 -7 -7 -25 -14 -41 -63 -120 -59 -323 8 -463 24 -50 113 -174 124 -174 4 0 22 -13 39 -29 18 -16 57 -40 85 -54 95 -46 145 -57 257 -57 91 0 118 4 187 29 179 63 313 213 359 399 50 207 -31 437 -201 569 -51 40 -129 80 -192 98 -52 15 -170 25 -217 19z m166 -50 c406 -90 553 -580 263 -871 -82 -82 -168 -127 -284 -149 -72 -13 -88 -13 -161 1 -120 22 -201 65 -284 149 -40 41 -80 92 -93 121 -13 28 -27 57 -32 66 -5 9 -14 52 -21 96 -12 81 -2 209 20 251 6 9 20 39 33 67 30 64 146 182 218 220 59 31 172 62 231 64 20 1 70 -6 110 -15z"/>
<path d="M2560 9861 l0 -48 -82 -7 c-46 -3 -122 -9 -169 -12 l-87 -7 -4 -516 c-2 -284 -4 -517 -3 -517 0 -1 201 -5 448 -9 l447 -8 0 525 0 525 -92 6 c-51 4 -132 9 -180 13 l-88 7 0 48 0 49 -95 0 -95 0 0 -49z m150 -35 c0 -54 -5 -52 196 -67 82 -6 150 -12 151 -13 1 -1 6 -219 9 -484 l7 -482 -413 0 -413 0 5 480 c3 265 7 483 9 485 2 1 69 8 148 14 197 16 191 14 191 67 l0 44 55 0 55 0 0 -44z"/>
<path d="M3640 9861 l0 -48 -87 -7 c-49 -3 -130 -9 -180 -12 l-93 -7 0 -523 0 -524 445 0 445 0 0 520 0 520 -22 4 c-13 3 -59 7 -103 10 -44 4 -113 9 -152 12 l-73 7 0 48 0 49 -90 0 -90 0 0 -49z m152 -38 l3 -48 55 -7 c30 -4 103 -10 161 -13 l106 -7 7 -105 c3 -59 6 -276 6 -485 l0 -378 -405 0 -405 0 0 485 0 485 23 0 c46 1 273 20 300 26 24 5 27 10 27 50 l0 44 59 0 60 0 3 -47z"/>
</g>


</svg>