<?xml version="1.0"?>
<svg xmlns="http://www.w3.org/2000/svg" xmlns:xlink="http://www.w3.org/1999/xlink" xmlns:svgjs="http://svgjs.com/svgjs" version="1.1" width="512" height="512" x="0" y="0" viewBox="0 0 64 64" style="enable-background:new 0 0 512 512" xml:space="preserve"><g><g xmlns="http://www.w3.org/2000/svg"><path d="m32 35c-6.065 0-11 4.935-11 11s4.935 11 11 11 11-4.935 11-11-4.935-11-11-11zm0 20c-4.962 0-9-4.038-9-9s4.038-9 9-9 9 4.038 9 9-4.038 9-9 9z" fill="#e7e7e7" data-original="#000000" style=""/><path d="m31 43h2c.551 0 1 .449 1 1h2c0-1.654-1.346-3-3-3v-2h-2v2c-1.654 0-3 1.346-3 3s1.346 3 3 3h2c.551 0 1 .449 1 1s-.449 1-1 1h-2c-.551 0-1-.449-1-1h-2c0 1.654 1.346 3 3 3v2h2v-2c1.654 0 3-1.346 3-3s-1.346-3-3-3h-2c-.551 0-1-.449-1-1s.449-1 1-1z" fill="#e7e7e7" data-original="#000000" style=""/><path d="m60.347 22.388c-.362-1.285-.874-2.521-1.527-3.685l1.244-2.509-5.258-5.258-2.509 1.244c-1.164-.653-2.399-1.165-3.685-1.527l-.894-2.653h-7.437l-.894 2.653c-1.463.412-2.861 1.018-4.164 1.807l-.026.02c-.128-.258-.236-.525-.377-.777l1.244-2.509-5.258-5.258-2.509 1.244c-1.164-.653-2.399-1.165-3.685-1.527l-.894-2.653h-7.437l-.894 2.653c-1.285.362-2.521.874-3.685 1.527l-2.508-1.244-5.258 5.258 1.244 2.509c-.653 1.164-1.165 2.399-1.527 3.685l-2.653.894v7.437l2.653.894c.362 1.285.874 2.521 1.527 3.685l-1.244 2.509 5.258 5.258 2.509-1.244c1.164.653 2.399 1.165 3.685 1.527l.894 2.652h2.287l.085.165c-.363.71-.671 1.457-.919 2.229l-2.735.877v7.459l2.734.876c.249.773.556 1.52.919 2.229l-1.312 2.548 5.274 5.274 2.549-1.312c.71.363 1.457.671 2.229.919l.878 2.736h7.459l.876-2.734c.772-.248 1.519-.556 2.229-.919l2.549 1.312 5.274-5.274-1.312-2.548c.363-.709.67-1.456.919-2.229l2.735-.879v-6.502c1.146-.352 2.251-.82 3.297-1.407l2.509 1.244 5.258-5.258-1.244-2.509c.653-1.164 1.165-2.399 1.527-3.685l2.653-.894v-7.437zm-42.82 14.043-.591-1.753-.533-.131c-1.462-.36-2.856-.938-4.144-1.718l-.47-.285-2.196 1.09-3.227-3.227 1.09-2.196-.285-.47c-.779-1.288-1.357-2.682-1.718-4.144l-.131-.533-2.322-.782v-4.563l2.322-.782.131-.533c.36-1.462.938-2.856 1.718-4.144l.285-.47-1.09-2.196 3.227-3.227 2.196 1.09.47-.285c1.288-.779 2.682-1.357 4.144-1.718l.533-.131.782-2.323h4.563l.782 2.322.533.131c1.462.36 2.856.938 4.144 1.718l.47.285 2.196-1.09 3.227 3.227-1.09 2.196.285.47c.779 1.288 1.357 2.682 1.718 4.144l.131.533 2.323.782v2.282 2.282l-2.322.782-.131.533c-.36 1.462-.938 2.856-1.718 4.144l-.285.47.392.789h-3.577c2.249-2.338 3.641-5.507 3.641-9 0-7.168-5.832-13-13-13s-13 5.832-13 13 5.832 13 13 13c.341 0 .675-.025 1.009-.051zm19.473-12.039v7.486c-.132-.047-.26-.101-.394-.144l-.877-2.734h-.561l-.349-.703c.653-1.164 1.165-2.399 1.527-3.685zm-20-1.392v4h-2v-6h10v6h-2v-4zm4 2v2h-1.373-.627v-2zm-6.586-6 5.586-5.586 5.586 5.586zm5.213 10h6.677c-1.787 1.256-3.959 2-6.305 2s-4.517-.744-6.305-2zm8.212 1.346-.445 1.388c-.772.248-1.519.556-2.229.919l-.813-.418c1.264-.451 2.437-1.091 3.487-1.889zm-.839-3.346v-6h1c.404 0 .769-.244.924-.617.155-.374.069-.804-.217-1.09l-8-8c-.391-.391-1.023-.391-1.414 0l-8 8c-.286.286-.372.716-.217 1.09.155.373.52.617.924.617h1v6h-1.479c-1.574-1.903-2.521-4.343-2.521-7 0-6.065 4.935-11 11-11s11 4.935 11 11c0 2.657-.947 5.097-2.521 7zm20 21.271-2.356.755-.146.517c-.279.988-.667 1.928-1.153 2.795l-.263.469 1.13 2.195-3.211 3.211-2.195-1.129-.468.262c-.869.486-1.81.875-2.796 1.153l-.517.146-.754 2.355h-4.541l-.755-2.356-.517-.146c-.986-.279-1.927-.667-2.796-1.153l-.468-.262-2.195 1.129-3.211-3.211 1.13-2.195-.263-.469c-.486-.867-.874-1.808-1.153-2.795l-.146-.517-2.356-.754v-4.541l2.356-.755.146-.517c.279-.986.667-1.927 1.153-2.796l.262-.468-1.129-2.195 3.211-3.211 2.195 1.129.468-.262c.869-.486 1.81-.875 2.796-1.153l.517-.146.754-2.356h4.541l.755 2.356.517.146c.986.279 1.927.667 2.796 1.153l.468.262 2.195-1.129 3.211 3.211-1.129 2.195.262.468c.486.869.875 1.81 1.153 2.796l.146.517 2.356.754zm-1.958-13.271h5.958v-15h-12v-2.772c1.543-.791 3.246-1.228 5-1.228 6.065 0 11 4.935 11 11 0 5.409-3.813 9.849-8.951 10.8l.609-1.184zm3.958-13v2h-10v-.282-1.718zm0 4v7h-5.958l-1.658-1.658-2.384 1.226v-6.568zm12 3.282-2.322.782-.131.533c-.361 1.462-.938 2.856-1.718 4.144l-.285.47 1.09 2.196-3.227 3.227-2.196-1.09-.47.285c-1.288.779-2.682 1.357-4.093 1.707l-.588.113-.794-.255c-.165-.515-.367-1.013-.584-1.502 6.445-.816 11.318-6.241 11.318-12.892 0-7.168-5.832-13-13-13-2.307 0-4.551.614-6.53 1.766l-1.124-.379c-.097-.343-.231-.672-.349-1.007l.309-.238c1.275-.765 2.653-1.333 4.097-1.689l.533-.131.782-2.322h4.563l.782 2.322.533.131c1.462.36 2.856.938 4.144 1.718l.47.285 2.196-1.09 3.227 3.227-1.09 2.196.285.47c.779 1.288 1.357 2.682 1.718 4.144l.131.533 2.323.782z" fill="#e7e7e7" data-original="#000000" style=""/></g></g></svg>
