<?xml version="1.0"?>
<svg xmlns="http://www.w3.org/2000/svg" xmlns:xlink="http://www.w3.org/1999/xlink" xmlns:svgjs="http://svgjs.com/svgjs" version="1.1" width="512" height="512" x="0" y="0" viewBox="0 0 64 64" style="enable-background:new 0 0 512 512" xml:space="preserve"><g><path xmlns="http://www.w3.org/2000/svg" d="m61 8v2h-6.643l-10.724-8.774c-.178-.146-.402-.226-.633-.226h-30c-2.206 0-4 1.794-4 4s1.794 4 4 4h.101c.465 2.279 2.484 4 4.899 4h5v7c0 1.196.55 2.297 1.427 3.043-2.106 2.005-3.427 4.827-3.427 7.957 0 6.065 4.935 11 11 11s11-4.935 11-11c0-2.657-.947-5.097-2.521-7h20.521v2h2v-18zm-37.414 3h-5.586c-1.302 0-2.402-.839-2.816-2h10.402zm-.586 20c0-4.625 3.507-8.442 8-8.941v2.083c-1.72.447-3 1.999-3 3.858 0 2.206 1.794 4 4 4 1.103 0 2 .897 2 2s-.897 2-2 2-2-.897-2-2h-2c0 1.859 1.28 3.411 3 3.858v2.083c-4.493-.499-8-4.316-8-8.941zm10.005-10.949c-.331-.03-.666-.051-1.005-.051s-.674.021-1.005.051c0-.017.005-.034.005-.051v-5.638l4.468-5.362h4.118l2.414 2.414v4.586h-5c-2.206 0-4 1.794-4 4 0 .017.005.034.005.051zm-.005 19.89v-2.083c1.72-.447 3-1.999 3-3.858 0-2.206-1.794-4-4-4-1.103 0-2-.897-2-2s.897-2 2-2 2 .897 2 2h2c0-1.859-1.28-3.411-3-3.858v-2.083c4.493.499 8 4.316 8 8.941s-3.507 8.442-8 8.941zm5.305-17.941c-.981-.689-2.077-1.22-3.256-1.561-.032-.143-.049-.289-.049-.439 0-1.103.897-2 2-2h6c.552 0 1-.447 1-1v-6c0-.266-.105-.52-.293-.707l-3-3c-.187-.188-.442-.293-.707-.293h-5c-.297 0-.578.132-.768.359l-5 6c-.15.18-.232.407-.232.641v6c0 .15-.02.296-.052.44-1.027.297-1.991.741-2.871 1.306-.642-.342-1.077-1-1.077-1.746v-7.586l3.707-3.707c.286-.286.372-.716.217-1.09s-.52-.617-.924-.617h-15c-1.103 0-2-.897-2-2s.897-2 2-2h29.643l10.724 8.774c.178.146.402.226.633.226h7v10z" fill="#e7e7e7" data-original="#000000" style=""/><path xmlns="http://www.w3.org/2000/svg" d="m52 49h-23.104c-.113-.443-.316-.86-.618-1.212l-5.519-6.438c-.19-.222-.467-.35-.759-.35h-11v-1c0-.553-.448-1-1-1h-8c-.552 0-1 .447-1 1v20c0 .553.448 1 1 1h8c.552 0 1-.447 1-1v-1h6.697l5.748 3.832c.166.11.359.168.555.168.071 0 .143-.008.214-.023l32-7c.459-.1.786-.507.786-.977v-1c0-2.757-2.243-5-5-5zm-43 10h-6v-18h6zm46-4.805-30.799 6.737-5.646-3.765c-.164-.108-.358-.167-.555-.167h-7v-14h10.54l5.219 6.089c.156.182.241.413.241.651v1.26c0 .552-.449 1-1 1h-1.171c-.267 0-.519-.104-.708-.293l-4.414-4.414-1.414 1.414 4.414 4.414c.566.567 1.32.879 2.122.879h1.171c1.654 0 3-1.346 3-3h23c1.654 0 3 1.346 3 3z" fill="#e7e7e7" data-original="#000000" style=""/><path xmlns="http://www.w3.org/2000/svg" d="m57.316 42.052c-1.582-.528-2.841-1.787-3.368-3.368-.136-.409-.517-.684-.948-.684s-.812.275-.949.684c-.527 1.581-1.786 2.84-3.368 3.368-.408.136-.683.517-.683.948s.275.812.684.948c1.582.528 2.841 1.787 3.368 3.368.136.409.517.684.948.684s.812-.275.949-.684c.527-1.581 1.786-2.84 3.368-3.368.408-.136.683-.517.683-.948s-.275-.812-.684-.948zm-4.316 2.752c-.492-.7-1.104-1.312-1.804-1.804.701-.492 1.312-1.104 1.804-1.804.492.7 1.104 1.312 1.804 1.804-.7.492-1.312 1.104-1.804 1.804z" fill="#e7e7e7" data-original="#000000" style=""/><path xmlns="http://www.w3.org/2000/svg" d="m6.684 21.948c1.582.528 2.841 1.787 3.368 3.368.136.409.517.684.948.684s.812-.275.949-.684c.527-1.581 1.786-2.84 3.368-3.368.408-.136.683-.517.683-.948s-.275-.812-.684-.948c-1.582-.528-2.841-1.787-3.368-3.368-.136-.409-.517-.684-.948-.684s-.812.275-.949.684c-.527 1.581-1.786 2.84-3.368 3.368-.408.136-.683.517-.683.948s.275.812.684.948zm4.316-2.752c.492.7 1.104 1.312 1.804 1.804-.701.492-1.312 1.104-1.804 1.804-.492-.7-1.104-1.312-1.804-1.804.7-.492 1.312-1.104 1.804-1.804z" fill="#e7e7e7" data-original="#000000" style=""/></g></svg>
