<?xml version="1.0"?>
<svg xmlns="http://www.w3.org/2000/svg" xmlns:xlink="http://www.w3.org/1999/xlink" xmlns:svgjs="http://svgjs.com/svgjs" version="1.1" width="512" height="512" x="0" y="0" viewBox="0 0 512 512" style="enable-background:new 0 0 512 512" xml:space="preserve"><g><g xmlns="http://www.w3.org/2000/svg"><path d="m504.5 401.214c4.143 0 7.5-3.358 7.5-7.5v-11.494c0-20.734-13.23-39.024-32.926-45.514l-46.877-15.424v-16.23c16.323-9.793 27.274-27.66 27.274-48.041v-32.325c0-30.872-25.116-55.988-55.988-55.988-18.184 0-34.365 8.72-44.599 22.191-5.665-10.631-15.272-18.922-27.299-22.872l-46.872-15.432v-16.23c16.323-9.793 27.274-27.66 27.274-48.041v-32.326c.001-30.872-25.115-55.988-55.987-55.988s-55.988 25.116-55.988 55.988v32.325c0 20.381 10.951 38.248 27.274 48.041v16.23l-46.867 15.431c-12.03 3.952-21.638 12.243-27.303 22.874-10.234-13.472-26.415-22.191-44.599-22.191-30.872 0-55.988 25.116-55.988 55.988v32.325c0 20.381 10.951 38.248 27.274 48.041v16.23l-46.881 15.425c-19.692 6.489-32.922 24.779-32.922 45.513v11.494c0 4.142 3.357 7.5 7.5 7.5s7.5-3.358 7.5-7.5v-11.494c0-14.244 9.089-26.809 22.613-31.266l43.911-14.449c4.013 11.025 14.597 18.919 26.992 18.919 12.394 0 22.978-7.895 26.991-18.919l43.905 14.447c9.624 3.172 17.081 10.478 20.53 19.737l-19.528 6.427c-19.697 6.482-32.931 24.77-32.931 45.505v8.717h-90.056v-18.765c0-4.142-3.357-7.5-7.5-7.5s-7.5 3.358-7.5 7.5v18.765h-27.427v-2.59c0-4.142-3.357-7.5-7.5-7.5s-7.5 3.358-7.5 7.5v10.09c0 4.142 3.357 7.5 7.5 7.5h139.983v58.16c0 4.142 3.357 7.5 7.5 7.5h202.033c4.143 0 7.5-3.358 7.5-7.5v-10.018c0-4.142-3.357-7.5-7.5-7.5s-7.5 3.358-7.5 7.5v2.52h-27.426v-44.018c0-4.142-3.357-7.5-7.5-7.5s-7.5 3.358-7.5 7.5v44.018h-102.18v-44.018c0-4.142-3.357-7.5-7.5-7.5s-7.5 3.358-7.5 7.5v44.018h-27.427v-74.377c0-14.243 9.09-26.805 22.62-31.257l43.906-14.45c4.014 11.023 14.597 18.917 26.991 18.917s22.977-7.893 26.991-18.917l43.906 14.45c13.53 4.453 22.62 17.014 22.62 31.257v36.842c0 4.142 3.357 7.5 7.5 7.5s7.5-3.358 7.5-7.5v-13.125h139.983c4.143 0 7.5-3.358 7.5-7.5v-10.09c0-4.142-3.357-7.5-7.5-7.5s-7.5 3.358-7.5 7.5v2.59h-27.427v-18.765c0-4.142-3.357-7.5-7.5-7.5s-7.5 3.358-7.5 7.5v18.765h-90.057v-8.717c0-20.736-13.234-39.023-32.931-45.505l-19.528-6.427c3.449-9.258 10.905-16.564 20.526-19.736l43.909-14.448c4.013 11.024 14.597 18.919 26.991 18.919 12.395 0 22.979-7.895 26.992-18.919l43.907 14.448c13.529 4.456 22.618 17.021 22.618 31.265v11.494c0 4.142 3.357 7.5 7.5 7.5zm-101.017-217.517c22.601 0 40.988 18.387 40.988 40.988v32.325c0 22.601-18.388 40.988-40.988 40.988s-40.987-18.387-40.987-40.988v-32.325c0-22.601 18.387-40.988 40.987-40.988zm-188.471-95.384v-32.325c0-22.601 18.387-40.988 40.988-40.988s40.988 18.387 40.988 40.988v32.325c0 22.601-18.388 40.988-40.988 40.988s-40.988-18.387-40.988-40.988zm40.988 55.988c4.73 0 9.323-.595 13.714-1.705v15.217c-.002.071-.001.141 0 .211-.006 7.557-6.155 13.703-13.713 13.703s-13.708-6.146-13.713-13.703c0-.071.001-.141 0-.211v-15.217c4.389 1.109 8.982 1.705 13.712 1.705zm-70.895 37.963 43.903-14.455c4.013 11.024 14.597 18.918 26.991 18.918s22.978-7.894 26.991-18.918l43.908 14.456c12.537 4.118 21.231 15.097 22.446 28.149-1.203 4.558-1.85 9.34-1.85 14.271v32.325c0 1.9.097 3.778.283 5.63h-35.853c-1.288-29.738-25.876-53.537-55.926-53.537s-54.638 23.799-55.926 53.537h-35.853c.186-1.852.283-3.73.283-5.63v-32.325c0-4.931-.647-9.712-1.85-14.271 1.217-13.051 9.912-24.03 22.453-28.15zm70.895 156.14c-22.601 0-40.988-18.387-40.988-40.988v-32.325c0-22.601 18.388-40.988 40.988-40.988s40.988 18.387 40.988 40.988v32.325c0 22.601-18.387 40.988-40.988 40.988zm-188.472-81.394v-32.325c0-22.601 18.388-40.988 40.988-40.988s40.987 18.387 40.987 40.988v32.325c0 22.601-18.387 40.988-40.987 40.988s-40.988-18.387-40.988-40.988zm54.701 69.701c0 7.562-6.151 13.713-13.713 13.713s-13.714-6.152-13.714-13.713v-15.418c4.39 1.11 8.983 1.705 13.714 1.705 4.73 0 9.323-.595 13.713-1.705zm61.875 9.995-46.874-15.424v-16.231c10.489-6.293 18.748-15.924 23.319-27.411h39.463v19.776c0 20.381 10.951 38.248 27.274 48.041v16.233l-13.099 4.311c-4.927-13.743-15.878-24.613-30.083-29.295zm71.896 44.126c-7.562 0-13.714-6.152-13.714-13.714v-.091c0-.015 0-.03 0-.044v-15.283c4.39 1.11 8.983 1.705 13.714 1.705s9.323-.595 13.714-1.705v15.283.044.091c0 7.562-6.152 13.714-13.714 13.714zm71.893-44.125c-14.202 4.681-25.153 15.551-30.079 29.295l-13.1-4.311v-16.233c16.323-9.793 27.274-27.66 27.274-48.041v-19.777h39.463c4.571 11.488 12.83 21.119 23.319 27.411v16.231zm75.59 3.718c-7.562 0-13.713-6.152-13.713-13.713v-15.418c4.39 1.11 8.983 1.705 13.713 1.705s9.323-.595 13.714-1.705v15.418c0 7.561-6.152 13.713-13.714 13.713z" fill="#ffffff" data-original="#000000" style=""/></g></g></svg>
